<svg width="102" height="108" viewBox="0 0 102 108" fill="none" xmlns="http://www.w3.org/2000/svg">
<path fill-rule="evenodd" clip-rule="evenodd" d="M94.6446 54.8553C94.9789 54.8553 95.25 55.1264 95.25 55.4607C95.25 68.4435 94.0403 77.6955 91.8246 84.2635C89.6032 90.8485 86.3586 94.7665 82.2891 97.0153C78.2439 99.2506 73.4639 99.7898 68.2698 99.7898C65.7642 99.7898 63.141 99.6637 60.4424 99.534L60.1348 99.5192C57.3225 99.3842 54.4255 99.25 51.4607 99.25C51.1264 99.25 50.8553 98.9789 50.8553 98.6446C50.8553 98.3102 51.1264 98.0392 51.4607 98.0392C54.4584 98.0392 57.3827 98.1749 60.1928 98.3098L60.4885 98.324C63.197 98.4542 65.794 98.579 68.2698 98.579C73.4086 98.579 77.934 98.0385 81.7035 95.9555C85.4488 93.8859 88.5284 90.2467 90.6774 83.8765C92.8321 77.4894 94.0392 68.3883 94.0392 55.4607C94.0392 55.1264 94.3102 54.8553 94.6446 54.8553Z" fill="#FF9054"/>
<path fill-rule="evenodd" clip-rule="evenodd" d="M13.3548 22.8699C7.55136 30.5078 6.46076 41.1132 6.46076 53.0392C6.46076 53.3736 6.18972 53.6446 5.85538 53.6446C5.52104 53.6446 5.25 53.3736 5.25 53.0392C5.25 41.1155 6.31859 30.129 12.3907 22.1374C18.4937 14.1052 29.5208 9.24997 49.0392 9.25C49.3736 9.25 49.6446 9.52104 49.6446 9.85538C49.6446 10.1897 49.3736 10.4608 49.0392 10.4608C29.6922 10.4607 19.1274 15.2725 13.3548 22.8699Z" fill="#FF9054"/>
<path d="M90.6087 54.25C90.6087 102.68 72.5395 94.6087 50.25 94.6087C27.9605 94.6087 9.89124 76.5395 9.89124 54.25C9.89124 31.9605 13.9271 13.8912 50.25 13.8912C86.5728 13.8913 90.6087 31.9605 90.6087 54.25Z" fill="#FF9054"/>
<path d="M30 76C30 75.4477 30.4477 75 31 75H74C74.5523 75 75 75.4477 75 76C75 76.5523 74.5523 77 74 77H31C30.4477 77 30 76.5523 30 76Z" fill="white"/>
<path fill-rule="evenodd" clip-rule="evenodd" d="M37 57V74H45V57H37ZM36 54C34.8954 54 34 54.8954 34 56V75C34 76.1046 34.8954 77 36 77H46C47.1046 77 48 76.1046 48 75V56C48 54.8954 47.1046 54 46 54H36Z" fill="white"/>
<path fill-rule="evenodd" clip-rule="evenodd" d="M48 47V74H56V47H48ZM47 44C45.8954 44 45 44.8954 45 46V75C45 76.1046 45.8954 77 47 77H57C58.1046 77 59 76.1046 59 75V46C59 44.8954 58.1046 44 57 44H47Z" fill="white"/>
<path fill-rule="evenodd" clip-rule="evenodd" d="M59 62V74H67V62H59ZM58 59C56.8954 59 56 59.8954 56 61V75C56 76.1046 56.8954 77 58 77H68C69.1046 77 70 76.1046 70 75V61C70 59.8954 69.1046 59 68 59H58Z" fill="white"/>
<path d="M51.5 24L53.1838 29.1824H58.6329L54.2245 32.3853L55.9084 37.5676L51.5 34.3647L47.0916 37.5676L48.7755 32.3853L44.3671 29.1824H49.8161L51.5 24Z" fill="white"/>
<path d="M94.5 0L96.5257 5.47432L102 7.5L96.5257 9.52568L94.5 15L92.4743 9.52568L87 7.5L92.4743 5.47432L94.5 0Z" fill="#FF9054"/>
<path d="M10 88L12.7009 95.2991L20 98L12.7009 100.701L10 108L7.29909 100.701L0 98L7.29909 95.2991L10 88Z" fill="#FF9054"/>
</svg>
