<svg width="1230" height="534" viewBox="0 0 1230 534" fill="none" xmlns="http://www.w3.org/2000/svg">
<line x1="635.5" y1="194" x2="635.5" y2="254" stroke="#ECECF5"/>
<line x1="1160.5" y1="255" x2="1160.5" y2="350" stroke="#ECECF5"/>
<line x1="1010.5" y1="255" x2="1010.5" y2="320" stroke="#ECECF5"/>
<line x1="860.5" y1="255" x2="860.5" y2="350" stroke="#ECECF5"/>
<line x1="710.5" y1="255" x2="710.5" y2="320" stroke="#ECECF5"/>
<line x1="560.5" y1="255" x2="560.5" y2="350" stroke="#ECECF5"/>
<line x1="410.5" y1="255" x2="410.5" y2="320" stroke="#ECECF5"/>
<line x1="260.5" y1="255" x2="260.5" y2="350" stroke="#ECECF5"/>
<line x1="110.5" y1="255" x2="110.5" y2="320" stroke="#ECECF5"/>
<line x1="110" y1="254.5" x2="1162" y2="254.5" stroke="#ECECF5"/>
<rect x="535" width="200" height="200" rx="10" fill="#FF7474"/>
<g clip-path="url(#clip0_378_2223)">
<path d="M658.832 79.8695C658.426 78.8537 657.41 78.4476 656.393 78.8537C654.971 79.4634 651.922 80.8866 650.295 81.6988C649.483 82.1061 649.279 82.9183 649.483 83.7317C649.685 84.5451 650.703 84.9512 651.312 84.5451C652.938 83.9354 655.987 82.9183 657.612 82.3085C658.629 81.9024 659.239 80.8866 658.832 79.8695ZM633.833 72.9598C634.645 72.9598 635.255 72.35 635.255 71.5366C635.255 69.911 635.459 66.4549 635.459 64.8293C635.459 63.8134 634.645 63 633.629 63C632.612 63 631.8 63.8134 631.8 64.8293C631.8 66.4549 632.003 69.911 632.003 71.5366C632.41 72.35 633.02 72.9598 633.832 72.9598H633.833ZM645.418 75.6012C646.724 73.8024 648.079 72.0403 649.483 70.3171C650.093 69.5037 649.889 68.2841 649.076 67.6744C648.263 67.0646 647.044 67.472 646.434 68.2841C645.621 69.7073 643.792 72.5524 642.978 73.9756C642.572 74.5854 642.776 75.6012 643.385 76.0085C643.995 76.4146 645.011 76.211 645.417 75.6012H645.418ZM623.671 86.9841C623.671 86.9841 624.076 85.3573 624.281 84.7476C625.703 79.6671 625.295 75.1951 623.671 72.7561C623.061 71.9427 622.246 71.5366 621.232 71.3329C620.622 71.3329 619.403 71.3329 618.588 74.3817C618.385 75.3988 614.929 87.7963 612.49 97.35C612.49 97.35 614.929 94.0976 615.539 93.0817C617.776 89.8293 619.605 86.9841 623.67 86.9841H623.671ZM632.613 86.9841H642.166C642.166 86.9841 641.759 86.1707 641.353 85.561C640.54 84.3415 639.117 82.1061 637.492 80.8866C635.865 79.6671 634.035 78.8537 632.41 79.8695C630.783 80.6829 630.783 82.5122 631.393 84.1378C631.596 84.5451 632.41 86.5768 632.612 86.9841H632.613ZM617.978 97.1463C619.605 94.7073 621.027 92.878 623.466 92.4719C625.905 92.0646 627.734 93.4878 629.971 95.1134C630.173 95.3171 631.8 96.5366 634.035 97.9598H636.882C642.166 97.9598 646.434 96.5366 648.263 94.3012C648.873 93.4878 649.279 92.4719 649.076 91.4549C648.873 91.0488 648.67 89.6256 645.417 89.6256H623.874C621.028 89.6256 620.216 90.8451 617.573 94.5037L611.068 103.448C610.255 104.463 609.849 105.073 610.051 106.089C610.051 106.496 610.255 106.902 610.661 107.106C610.661 107.512 616.149 99.789 617.978 97.1463Z" fill="white"/>
<path d="M616.758 106.699C618.385 104.26 619.807 102.431 622.246 102.024C624.685 101.618 626.515 103.04 628.751 104.667C629.971 105.683 632.613 107.512 633.833 108.326C635.865 109.748 636.678 111.171 636.882 112.594C638.711 113.204 640.54 113.406 641.76 113C642.776 112.796 643.589 112.187 643.995 111.171C644.198 110.765 644.807 109.342 642.166 107.512C639.929 105.887 630.377 98.9757 628.344 97.3501C626.108 95.7233 625.093 94.9111 623.873 95.1135C622.654 95.3172 621.84 96.333 620.215 98.5696C617.978 101.821 613.304 108.122 611.068 111.171C610.255 112.187 609.849 113 610.051 113.813C610.051 114.22 610.255 114.626 610.661 114.829C610.661 115.235 615.337 108.732 616.758 106.699Z" fill="white"/>
<path d="M647.451 98.772C645.012 99.9915 641.759 100.805 638.1 101.009C640.946 103.04 643.588 105.073 644.198 105.479C648.06 108.326 647.45 110.967 646.84 112.39C646.028 114.016 644.605 115.235 642.776 115.845C641.962 116.049 641.149 116.049 640.337 116.049C639.117 116.049 637.898 115.845 636.678 115.439C636.068 116.862 634.849 118.082 633.222 118.488C630.58 119.504 627.124 119.098 623.466 117.268C622.856 116.862 622.45 116.049 622.856 115.439C623.263 114.829 624.076 114.423 624.685 114.829C627.734 116.252 630.377 116.659 632.206 115.845C633.02 115.439 633.629 115.033 634.035 114.22C634.239 113.813 634.849 112.39 632.206 110.561C630.987 109.545 628.345 107.716 627.126 106.902C624.889 105.277 623.873 104.463 622.654 104.667C621.434 104.87 620.621 105.887 618.995 108.122C616.962 110.765 613.1 116.252 611.068 119.098C610.459 119.911 610.255 120.521 610.459 120.927C610.459 121.74 610.865 122.552 611.474 122.96C614.117 125.399 620.824 129.87 625.499 132.918C627.938 134.545 631.19 135.765 635.662 135.765C645.824 135.765 653.955 127.431 653.955 117.268C653.955 114.626 653.345 111.984 652.328 109.748C651.718 108.935 647.856 99.789 647.45 98.772H647.451Z" fill="white"/>
</g>
<g filter="url(#filter0_d_378_2223)">
<rect x="40" y="320" width="140" height="170" rx="10" fill="#F9F9FE" fill-opacity="0.5" shape-rendering="crispEdges"/>
<rect x="40.5" y="320.5" width="139" height="169" rx="9.5" stroke="#ECEDF5" stroke-opacity="0.6" shape-rendering="crispEdges"/>
</g>
<path d="M99.5837 411.328H91.5917L90.1067 415H84.6527L92.9957 396.1H98.2607L106.631 415H101.069L99.5837 411.328ZM98.0177 407.386L95.5877 401.338L93.1577 407.386H98.0177ZM116.246 396.1C117.956 396.1 119.441 396.388 120.701 396.964C121.961 397.522 122.933 398.332 123.617 399.394C124.301 400.438 124.643 401.671 124.643 403.093C124.643 404.515 124.301 405.748 123.617 406.792C122.933 407.836 121.961 408.646 120.701 409.222C119.441 409.78 117.956 410.059 116.246 410.059H112.952V415H107.606V396.1H116.246ZM115.922 405.847C117.02 405.847 117.848 405.613 118.406 405.145C118.964 404.659 119.243 403.975 119.243 403.093C119.243 402.211 118.964 401.527 118.406 401.041C117.848 400.555 117.02 400.312 115.922 400.312H112.952V405.847H115.922ZM126.71 396.1H132.056V415H126.71V396.1Z" fill="#131438"/>
<rect x="190" y="350" width="140" height="170" rx="10" fill="#F9F9FE" fill-opacity="0.5"/>
<rect x="190.5" y="350.5" width="139" height="169" rx="9.5" stroke="#ECEDF5" stroke-opacity="0.6"/>
<g clip-path="url(#clip1_378_2223)">
<path d="M236.074 427.878C231.617 427.878 227.902 429.765 227.902 435.459C227.902 439.97 230.401 442.81 236.19 442.81C243.004 442.81 243.44 438.331 243.44 438.331H240.139C240.139 438.331 239.43 440.742 235.988 440.742C233.184 440.742 231.168 438.851 231.168 436.202H243.785V434.539C243.785 431.918 242.118 427.877 236.074 427.877V427.878ZM235.959 430.004C238.629 430.004 240.447 431.635 240.447 434.081H231.24C231.24 431.484 233.616 430.004 235.959 430.004Z" fill="#E53238"/>
<path d="M243.783 422.365V439.951C243.783 440.948 243.712 442.35 243.712 442.35H246.861C246.861 442.35 246.975 441.344 246.975 440.424C246.975 440.424 248.53 442.853 252.761 442.853C257.215 442.853 260.241 439.765 260.241 435.344C260.241 431.23 257.462 427.921 252.768 427.921C248.372 427.921 247.006 430.291 247.006 430.291V422.365H243.784H243.783ZM251.955 430.097C254.98 430.097 256.904 432.337 256.904 435.344C256.904 438.568 254.682 440.678 251.976 440.678C248.748 440.678 247.006 438.162 247.006 435.373C247.006 432.774 248.569 430.097 251.955 430.097Z" fill="#0064D2"/>
<path d="M268.067 427.878C261.361 427.878 260.932 431.542 260.932 432.128H264.269C264.269 432.128 264.444 429.988 267.837 429.988C270.042 429.988 271.75 430.996 271.75 432.932V433.621H267.837C262.643 433.621 259.897 435.137 259.897 438.216C259.897 441.245 262.434 442.893 265.862 442.893C270.536 442.893 272.042 440.315 272.042 440.315C272.042 441.341 272.121 442.351 272.121 442.351H275.088C275.088 442.351 274.973 441.099 274.973 440.297V433.375C274.973 428.835 271.304 427.879 268.067 427.879V427.878ZM271.75 435.689V436.607C271.75 437.806 271.009 440.786 266.647 440.786C264.258 440.786 263.234 439.595 263.234 438.215C263.234 435.705 266.683 435.689 271.749 435.689H271.75Z" fill="#F5AF02"/>
<path d="M273.176 428.453H276.931L282.319 439.227L287.696 428.453H291.098L281.304 447.635H277.736L280.562 442.288L273.176 428.453Z" fill="#86B817"/>
</g>
<g filter="url(#filter1_d_378_2223)">
<rect x="340" y="320" width="140" height="170" rx="10" fill="#F9F9FE" fill-opacity="0.5" shape-rendering="crispEdges"/>
<rect x="340.5" y="320.5" width="139" height="169" rx="9.5" stroke="#ECEDF5" stroke-opacity="0.6" shape-rendering="crispEdges"/>
</g>
<g clip-path="url(#clip2_378_2223)">
<path d="M411.44 408.175H416.655C418.138 408.175 419.077 407.359 419.077 406.05C419.077 404.814 418.138 403.924 416.654 403.924H411.44C411.268 403.924 411.119 404.073 411.119 404.22V407.879C411.144 408.051 411.268 408.175 411.44 408.175ZM411.44 416.603H416.828C418.484 416.603 419.473 415.763 419.473 414.28C419.473 412.994 418.534 411.957 416.828 411.957H411.44C411.268 411.957 411.119 412.104 411.119 412.253V416.281C411.144 416.479 411.268 416.604 411.44 416.604V416.603Z" fill="#34313F"/>
<path d="M430.52 384.745L415.098 400.118H417.618C421.549 400.118 423.872 402.59 423.872 405.283C423.872 407.409 422.438 408.966 420.906 409.658C420.658 409.757 420.658 410.103 420.931 410.202C422.71 410.894 423.971 412.747 423.971 414.923C423.971 417.987 421.919 420.433 417.94 420.433H407.016C406.844 420.433 406.695 420.286 406.695 420.137V408.496L389.765 425.353C389.542 425.576 389.689 425.971 390.011 425.971H430.717C430.788 425.97 430.857 425.941 430.908 425.891C430.958 425.84 430.987 425.771 430.988 425.7V384.968C431.064 384.696 430.717 384.548 430.519 384.745H430.52Z" fill="#34313F"/>
</g>
<rect x="490" y="350" width="140" height="170" rx="10" fill="#F9F9FE" fill-opacity="0.5"/>
<rect x="490.5" y="350.5" width="139" height="169" rx="9.5" stroke="#ECEDF5" stroke-opacity="0.6"/>
<g clip-path="url(#clip3_378_2223)">
<path d="M551.17 448.404C551.571 448.22 551.971 448.069 552.388 447.903C552.856 447.736 553.323 447.569 553.791 447.419C554.375 447.235 554.976 447.085 555.576 446.951C556.387 446.782 557.206 446.654 558.03 446.567C557.566 448.03 557.054 449.477 556.495 450.907L556.544 451.743C558.827 451.299 561.173 451.299 563.456 451.743C563.456 451.458 563.472 451.174 563.505 450.907C562.954 449.475 562.442 448.028 561.97 446.567C562.787 446.65 563.623 446.768 564.424 446.951C565.509 447.189 566.574 447.506 567.612 447.902C568.029 448.053 568.429 448.22 568.83 448.404C571.721 449.69 574.296 451.593 576.375 453.979C579.108 451.63 581.3 448.717 582.801 445.441C584.302 442.165 585.077 438.603 585.071 435C585.071 421.162 573.854 409.928 560 409.928C546.162 409.928 534.929 421.146 534.929 435C534.929 442.577 538.3 449.372 543.625 453.979C545.704 451.593 548.279 449.69 551.17 448.404Z" fill="#A0DBE8"/>
<path d="M552.823 452.944C554.01 452.417 555.253 452.025 556.528 451.775C556.528 451.496 556.512 451.218 556.479 450.941C557.029 449.508 557.541 448.061 558.014 446.601C557.196 446.684 556.361 446.802 555.56 446.985C554.475 447.222 553.41 447.54 552.372 447.936L554.192 448.388L552.823 452.944ZM548.517 455.632C548.566 455.164 548.582 454.697 548.582 454.213C548.583 454.076 548.638 453.945 548.735 453.848C548.831 453.751 548.963 453.696 549.1 453.695H549.55L551.154 448.388C548.263 449.674 545.688 451.577 543.609 453.963C544.776 454.98 546.045 455.882 547.381 456.667C547.765 456.316 548.132 455.966 548.517 455.632ZM568.813 448.404L570.416 453.711H570.867C571.004 453.712 571.135 453.767 571.232 453.864C571.329 453.961 571.384 454.092 571.384 454.229C571.384 454.713 571.418 455.181 571.451 455.648C571.835 455.982 572.219 456.316 572.569 456.683C573.91 455.904 575.173 454.999 576.342 453.979C574.272 451.59 571.702 449.687 568.814 448.404H568.813ZM565.758 448.354L567.578 447.904C567.11 447.736 566.644 447.569 566.176 447.419C565.592 447.235 564.991 447.085 564.39 446.951C563.579 446.783 562.76 446.655 561.936 446.568C562.401 448.03 562.913 449.478 563.472 450.907L563.422 451.743C564.698 451.99 565.941 452.382 567.128 452.91L565.758 448.354Z" fill="#525353"/>
<path d="M559.984 453.711H563.522C563.453 453.068 563.425 452.422 563.438 451.775C561.156 451.331 558.81 451.331 556.528 451.775C556.544 452.426 556.511 453.06 556.444 453.711H559.984ZM547.397 456.667C547.682 456.834 547.982 457.001 548.283 457.167C548.382 456.667 548.466 456.149 548.515 455.632C548.132 455.966 547.765 456.316 547.397 456.667Z" fill="black"/>
<path d="M552.589 453.711H556.462C556.528 453.06 556.561 452.41 556.544 451.775C555.243 452.026 554.006 452.426 552.839 452.944L552.589 453.711ZM571.467 455.632C571.517 456.149 571.601 456.667 571.701 457.167C572.002 457.017 572.286 456.85 572.586 456.667C572.219 456.316 571.851 455.965 571.467 455.632ZM567.395 453.711L567.16 452.944C565.973 452.417 564.73 452.025 563.456 451.775C563.438 452.426 563.472 453.06 563.538 453.711H567.394H567.395Z" fill="black"/>
<path d="M552.589 453.711L552.823 452.944L554.208 448.354L552.388 447.904C551.971 448.053 551.571 448.221 551.17 448.404L549.568 453.711H552.589ZM567.161 452.944L567.395 453.711H570.416L568.814 448.404C568.413 448.221 568.012 448.069 567.594 447.904L565.774 448.354L567.161 452.944Z" fill="#AA9678"/>
<path d="M549.617 454.78C549.635 454.764 549.651 454.764 549.668 454.746H549.619V454.78H549.617Z" fill="#C0B098"/>
<path d="M559.984 454.748H549.668C549.651 454.764 549.635 454.764 549.619 454.78C549.584 455.747 549.456 456.709 549.235 457.652C552.592 459.252 556.265 460.078 559.984 460.071V454.748Z" fill="#C0B098"/>
<path d="M570.367 454.748H570.316C570.332 454.764 570.349 454.764 570.365 454.78V454.746L570.367 454.748Z" fill="#AA9678"/>
<path d="M570.316 454.748H559.983V460.071C563.822 460.071 567.478 459.203 570.733 457.651C570.513 456.708 570.384 455.747 570.349 454.78C570.349 454.764 570.332 454.746 570.316 454.746V454.748Z" fill="#AA9678"/>
<path d="M571.467 455.632C571.42 455.16 571.397 454.687 571.4 454.213C571.4 454.076 571.345 453.945 571.248 453.848C571.151 453.751 571.02 453.696 570.883 453.695H549.084C548.947 453.696 548.815 453.751 548.718 453.848C548.622 453.945 548.567 454.076 548.566 454.213C548.566 454.696 548.533 455.164 548.499 455.632C548.45 456.149 548.366 456.667 548.265 457.167C548.582 457.334 548.899 457.501 549.217 457.651C549.437 456.709 549.566 455.747 549.601 454.78V454.746H570.348V454.78C570.383 455.765 570.516 456.716 570.733 457.652C571.05 457.501 571.367 457.334 571.684 457.167C571.585 456.667 571.518 456.149 571.467 455.632Z" fill="#8B7460"/>
<path d="M567.162 450.122C567.078 450.039 567.011 449.939 566.927 449.84C567.011 449.956 567.096 450.039 567.162 450.122Z" fill="#525353"/>
<path d="M567.746 450.706C567.746 450.706 567.494 450.506 567.161 450.139C567.495 450.506 567.746 450.706 567.746 450.706Z" fill="#AA9678"/>
<path d="M576.675 429.425C576.675 429.409 576.675 429.425 576.675 429.425C576.474 429.145 576.257 428.877 576.025 428.624C575.924 428.506 575.824 428.407 575.724 428.307C575.69 428.273 575.641 428.24 575.607 428.206C575.545 428.146 575.478 428.09 575.407 428.039V430.376L576.291 434.466C576.308 434.5 576.308 434.532 576.324 434.565L576.943 435.267H577.593V435.083C577.593 433.146 577.276 431.294 576.708 429.558C576.692 429.492 576.692 429.458 576.676 429.425H576.675Z" fill="#BBBCBD"/>
<path d="M576.392 434.849V434.882C576.408 434.981 576.408 435.082 576.408 435.182V435.281C576.408 435.383 576.408 435.482 576.391 435.566V435.599L576.342 435.899L576.959 435.215L576.342 434.516C576.359 434.632 576.375 434.733 576.391 434.85L576.392 434.849Z" fill="#676A6A"/>
<path d="M576.375 435.634V435.601C576.391 435.502 576.391 435.4 576.391 435.317V435.183C576.391 435.084 576.391 434.983 576.375 434.884V434.85L576.326 434.549C576.308 434.516 576.308 434.483 576.291 434.45C576.237 434.268 576.159 434.093 576.058 433.932C576.041 433.916 576.025 433.898 576.025 433.882C575.991 433.849 575.975 433.815 575.94 433.782C575.904 433.734 575.859 433.694 575.807 433.664C575.791 433.648 575.773 433.648 575.757 433.631C575.724 433.599 575.674 433.581 575.641 433.565C575.623 433.565 575.607 433.548 575.591 433.548C575.532 433.527 575.469 433.516 575.406 433.514C575.34 433.514 575.29 433.532 575.224 433.548C575.206 433.548 575.19 433.564 575.174 433.564C575.139 433.581 575.09 433.597 575.056 433.631C575.039 433.648 575.023 433.648 575.007 433.664C574.956 433.698 574.923 433.748 574.873 433.782C574.84 433.815 574.824 433.849 574.789 433.881C574.773 433.898 574.756 433.916 574.756 433.932C574.657 434.083 574.572 434.249 574.522 434.449V434.467C574.488 434.549 574.472 434.65 574.456 434.75C574.456 434.783 574.439 434.8 574.439 434.833C574.421 434.951 574.421 435.05 574.405 435.167V435.217C574.405 436.169 574.856 436.953 575.407 436.953C575.506 436.953 575.59 436.919 575.692 436.886C575.708 436.886 575.724 436.87 575.741 436.87C575.773 436.852 575.807 436.82 575.84 436.803L575.89 436.753C575.94 436.72 575.974 436.669 576.025 436.62C576.058 436.586 576.074 436.553 576.108 436.502C576.125 436.468 576.141 436.452 576.157 436.419C576.192 436.369 576.208 436.319 576.241 436.252C576.259 436.236 576.259 436.218 576.275 436.185C576.308 436.102 576.324 436.018 576.358 435.935C576.358 435.836 576.375 435.734 576.375 435.634ZM575.439 435C575.222 435 575.055 434.715 575.055 434.349C575.055 433.999 575.222 433.698 575.439 433.698C575.656 433.698 575.823 433.982 575.823 434.349C575.823 434.717 575.64 435 575.439 435Z" fill="black"/>
<path d="M575.439 434.998C575.652 434.998 575.823 434.707 575.823 434.348C575.823 433.988 575.652 433.698 575.439 433.698C575.229 433.698 575.055 433.988 575.055 434.348C575.055 434.707 575.229 434.998 575.439 434.998Z" fill="white"/>
<path d="M574.505 434.449C574.572 434.248 574.639 434.083 574.739 433.932C574.756 433.915 574.772 433.898 574.772 433.882C574.806 433.849 574.822 433.815 574.856 433.782C574.892 433.734 574.938 433.694 574.99 433.664C575.006 433.648 575.023 433.648 575.039 433.632C575.073 433.598 575.123 433.581 575.157 433.565C575.173 433.565 575.19 433.548 575.206 433.548C575.265 433.527 575.327 433.516 575.389 433.514C575.456 433.514 575.507 433.532 575.574 433.548C575.59 433.548 575.607 433.565 575.623 433.565C575.657 433.581 575.708 433.597 575.741 433.631C575.757 433.648 575.773 433.648 575.791 433.664C575.84 433.698 575.874 433.748 575.924 433.782C575.958 433.815 575.974 433.849 576.007 433.881C576.025 433.898 576.041 433.915 576.041 433.932C576.141 434.083 576.224 434.248 576.275 434.449L575.389 430.36L574.505 434.449Z" fill="#909393"/>
<path d="M563.572 435.2C563.572 435.116 563.572 435.033 563.556 434.949C563.538 434.866 563.538 434.801 563.522 434.716C563.51 434.641 563.488 434.569 563.456 434.5C563.435 434.424 563.407 434.351 563.371 434.282L563.272 434.081C563.161 433.883 563.02 433.703 562.854 433.548C562.637 433.347 562.389 433.184 562.12 433.065C561.983 433.012 561.844 432.967 561.702 432.93H561.686C561.389 432.864 561.082 432.864 560.785 432.93H560.768C560.618 432.963 560.483 432.997 560.35 433.047H560.333C560.201 433.097 560.067 433.164 559.949 433.247C559.833 433.331 559.716 433.414 559.615 433.514H559.599C559.431 433.679 559.286 433.864 559.166 434.065L559.065 434.266C559.065 434.266 559.065 434.282 559.048 434.282C559.018 434.34 558.996 434.402 558.981 434.466C558.981 434.482 558.965 434.482 558.965 434.5C558.948 434.565 558.932 434.616 558.915 434.683C558.915 434.699 558.898 434.716 558.898 434.732C558.882 434.799 558.882 434.85 558.865 434.917C558.865 434.933 558.865 434.949 558.849 434.966C558.849 435.049 558.831 435.134 558.831 435.217C558.831 435.368 558.849 435.517 558.881 435.667V435.685C558.915 435.834 558.949 435.968 559.014 436.118C559.135 436.388 559.298 436.636 559.499 436.853C559.666 437.019 559.85 437.17 560.05 437.287L560.25 437.386H560.267C560.333 437.42 560.4 437.436 560.451 437.454C560.467 437.454 560.467 437.454 560.484 437.47C560.551 437.487 560.6 437.503 560.667 437.519C560.685 437.519 560.701 437.537 560.717 437.537C560.785 437.554 560.834 437.554 560.901 437.57C560.917 437.57 560.935 437.57 560.951 437.587C561.035 437.587 561.118 437.604 561.202 437.604C561.536 437.604 561.836 437.537 562.12 437.42C562.253 437.353 562.387 437.287 562.521 437.204C562.771 437.037 562.988 436.82 563.155 436.569C563.238 436.435 563.304 436.302 563.371 436.169C563.489 435.884 563.556 435.567 563.556 435.25V435.234L563.572 435.2ZM561.22 434.916C560.985 434.914 560.761 434.82 560.596 434.655C560.43 434.49 560.336 434.266 560.334 434.032C560.336 433.798 560.43 433.574 560.595 433.408C560.76 433.242 560.984 433.148 561.218 433.146C561.453 433.148 561.677 433.242 561.842 433.408C562.008 433.573 562.102 433.797 562.104 434.032C562.102 434.266 562.008 434.49 561.842 434.656C561.677 434.822 561.453 434.915 561.218 434.917L561.22 434.916Z" fill="black"/>
<path d="M561.218 434.917C561.453 434.917 561.678 434.824 561.844 434.658C562.01 434.492 562.104 434.267 562.104 434.032C562.104 433.797 562.01 433.572 561.844 433.406C561.678 433.24 561.453 433.146 561.218 433.146C560.984 433.146 560.758 433.24 560.592 433.406C560.426 433.572 560.333 433.797 560.333 434.032C560.333 434.267 560.426 434.492 560.592 434.658C560.758 434.824 560.984 434.917 561.218 434.917Z" fill="white"/>
<path d="M559.583 433.514L561.218 428.524V427.355C560.301 427.167 559.367 427.072 558.431 427.071C558.114 427.071 557.796 427.089 557.479 427.105C557.434 427.102 557.389 427.108 557.346 427.122C555.71 427.246 554.11 427.664 552.622 428.356C551.35 428.942 550.165 429.7 549.1 430.61C548.816 430.861 548.533 431.111 548.265 431.377L548.116 431.528C547.862 431.782 547.617 432.043 547.381 432.312C547.332 432.379 547.281 432.43 547.23 432.497C546.998 432.78 546.764 433.064 546.546 433.347C546.53 433.365 546.513 433.397 546.496 433.414C546.296 433.699 546.096 433.982 545.896 434.282L545.778 434.449C545.628 434.699 545.478 434.951 545.345 435.201H552.756L559.583 433.514Z" fill="#BBBCBD"/>
<path d="M565.843 432.963C565.859 432.763 565.876 432.579 565.876 432.379C565.892 432.113 565.892 431.861 565.909 431.595V430.793C565.909 430.261 565.876 429.742 565.86 429.208C565.86 429.208 565.843 429.208 565.843 429.191C565.843 429.191 565.825 429.191 565.825 429.175C565.726 429.125 565.491 428.99 565.274 428.858H565.258C565.212 428.823 565.162 428.795 565.108 428.774C565.075 428.757 565.042 428.724 565.008 428.707L564.991 428.691C564.961 428.678 564.933 428.661 564.908 428.641C564.574 428.457 564.223 428.307 563.873 428.156C563.038 427.805 561.903 427.488 561.252 427.339V428.506L562.871 433.481C563.038 433.632 563.188 433.815 563.288 434.014L563.387 434.215C563.426 434.283 563.455 434.356 563.472 434.433C563.489 434.499 563.521 434.581 563.538 434.65C563.556 434.733 563.572 434.799 563.572 434.884C563.586 434.966 563.592 435.05 563.589 435.134V435.15H565.558C565.692 434.432 565.793 433.697 565.843 432.963C565.843 432.997 565.843 432.981 565.843 432.963Z" fill="#E2DDDB"/>
<path d="M563.589 442.311C564.04 441.86 564.456 441.444 564.857 441.026C565.092 440.776 565.325 440.526 565.559 440.292C567.211 438.505 568.413 436.819 569.147 434.666C569.168 434.601 569.185 434.534 569.197 434.466V434.433C569.214 434.349 569.231 434.266 569.247 434.166C569.247 434.099 569.265 434.032 569.265 433.965C569.08 433.03 568.73 432.113 568.413 431.212V431.228L568.397 431.212C568.33 431.162 568.279 431.094 568.212 431.044C568.029 430.877 567.846 430.71 567.645 430.543C567.072 430.059 566.464 429.619 565.825 429.224C565.859 429.759 565.875 430.277 565.875 430.81V431.613C565.875 431.879 565.859 432.145 565.843 432.396C565.825 432.597 565.825 432.78 565.809 432.981V433.048C565.748 433.78 565.653 434.51 565.524 435.234L565.292 436.336C564.808 438.305 563.822 440.075 563.021 441.911C562.804 442.394 562.604 442.895 562.42 443.397L562.371 443.545C562.621 443.279 562.854 443.045 563.021 442.878C563.239 442.661 563.405 442.478 563.589 442.311Z" fill="#FBB040"/>
<path d="M559.6 433.514C559.699 433.415 559.817 433.331 559.934 433.247C560.053 433.164 560.182 433.097 560.318 433.047H560.334C560.468 432.998 560.6 432.947 560.752 432.93H560.768C561.064 432.864 561.372 432.864 561.669 432.93H561.686C561.836 432.963 561.97 432.997 562.104 433.064C562.37 433.181 562.621 433.331 562.838 433.548L561.218 428.573L559.599 433.514H559.6Z" fill="#909393"/>
<path d="M559.032 436.118C558.977 435.977 558.933 435.832 558.898 435.685V435.667C558.865 435.519 558.849 435.368 558.849 435.217C558.849 435.134 558.849 435.05 558.865 434.967C558.865 434.949 558.865 434.933 558.882 434.917C558.882 434.85 558.898 434.8 558.915 434.733C558.915 434.717 558.932 434.699 558.932 434.683C558.949 434.616 558.965 434.566 558.981 434.5C558.981 434.483 558.998 434.483 558.998 434.467C559.016 434.4 559.048 434.333 559.065 434.282C559.065 434.282 559.065 434.266 559.083 434.266L559.182 434.065C559.299 433.865 559.449 433.682 559.616 433.514L552.772 435.201H552.756L559.533 436.854C559.314 436.648 559.143 436.397 559.032 436.118Z" fill="#676A6A"/>
<path d="M574.421 434.833C574.421 434.799 574.439 434.766 574.439 434.75C574.455 434.65 574.472 434.549 574.506 434.465V434.433L575.39 430.342V428.006C574.655 427.406 573.888 427.071 573.069 427.071C572.036 427.071 571.083 427.638 570.365 428.34C569.582 429.108 568.98 430.076 568.48 431.044C568.462 431.094 568.43 431.127 568.413 431.178L568.864 431.578C569.198 431.879 569.532 432.196 569.848 432.513L570.298 432.963C570.45 433.131 570.615 433.28 570.766 433.447C570.967 433.664 571.166 433.865 571.351 434.083C571.434 434.166 571.518 434.266 571.601 434.349C571.835 434.616 572.068 434.866 572.302 435.134L572.386 435.217H574.405V435.167C574.405 435.067 574.405 434.951 574.421 434.833Z" fill="#E2DDDB"/>
<path d="M544.126 437.788C544.126 437.771 544.143 437.755 544.143 437.738C544.276 437.403 544.41 437.069 544.56 436.736C544.593 436.637 544.644 436.553 544.693 436.468C544.81 436.202 544.944 435.951 545.077 435.701C545.127 435.602 545.178 435.5 545.244 435.384C545.278 435.334 545.311 435.268 545.343 435.217C545.495 434.967 545.628 434.717 545.778 434.466L545.896 434.299C546.079 433.998 546.279 433.715 546.496 433.431C546.513 433.414 546.53 433.382 546.546 433.365C546.761 433.071 546.99 432.786 547.23 432.513C547.28 432.446 547.331 432.396 547.381 432.33C547.614 432.062 547.864 431.795 548.116 431.545L548.265 431.395C548.533 431.127 548.799 430.877 549.1 430.627C550.219 426.855 553.673 424.1 557.747 424.1C559.382 424.1 561.018 424.568 562.421 425.436C563.853 426.323 565.014 427.588 565.776 429.091C565.776 429.091 565.776 429.108 565.792 429.108C565.811 429.148 565.834 429.187 565.859 429.224C566.712 429.751 567.512 430.361 568.246 431.044C568.313 431.094 568.363 431.161 568.429 431.212C568.444 431.164 568.467 431.119 568.496 431.078C569.064 427.455 570.666 424.834 572.553 424.834C573.971 424.834 575.24 426.32 576.007 428.607V428.624C576.224 428.858 576.441 429.124 576.659 429.408C576.659 429.408 576.659 429.425 576.676 429.425C576.692 429.458 576.692 429.492 576.708 429.524L576.676 429.408C574.322 422.464 567.762 417.456 560.016 417.456C550.302 417.456 542.44 425.318 542.44 435.034C542.44 436.953 542.741 438.789 543.308 440.508V440.492C543.424 439.975 543.558 439.457 543.709 438.957C543.842 438.556 543.975 438.172 544.126 437.787V437.788Z" fill="#525353"/>
<path d="M576.942 435.234L576.324 435.917C576.308 436.001 576.275 436.084 576.241 436.169C576.241 436.185 576.224 436.202 576.208 436.235C576.187 436.294 576.158 436.35 576.124 436.401C576.108 436.435 576.09 436.451 576.074 436.486C576.041 436.519 576.025 436.569 575.991 436.602C575.955 436.655 575.91 436.7 575.858 436.736L575.808 436.785C575.773 436.82 575.74 436.836 575.706 436.853C575.69 436.853 575.674 436.869 575.657 436.869C575.57 436.917 575.471 436.94 575.372 436.936C574.822 436.936 574.372 436.169 574.372 435.2H572.352C572.736 435.634 573.103 436.067 573.454 436.519L573.47 436.535L574.523 437.838C574.539 437.854 574.555 437.887 574.572 437.904C574.907 438.322 575.222 438.739 575.541 439.156C575.574 439.19 575.607 439.239 575.64 439.273C575.974 439.723 576.308 440.174 576.642 440.608V440.626C577.226 438.905 577.543 437.086 577.559 435.183L576.942 435.233V435.234Z" fill="white"/>
<path d="M557.346 427.105C557.395 427.105 557.43 427.105 557.479 427.089C558.731 427.003 559.989 427.087 561.218 427.339V427.788V427.339C561.852 427.489 562.989 427.805 563.839 428.156C564.19 428.307 564.54 428.474 564.874 428.64C564.891 428.64 564.924 428.657 564.957 428.689C564.957 428.689 564.975 428.689 564.975 428.707C565.007 428.724 565.04 428.74 565.074 428.774C565.123 428.807 565.174 428.823 565.225 428.858H565.241C565.458 428.974 565.692 429.124 565.792 429.175C565.809 429.175 565.809 429.191 565.809 429.191L565.825 429.208C565.806 429.167 565.783 429.128 565.758 429.091C565.758 429.091 565.758 429.075 565.742 429.075C564.985 427.568 563.823 426.302 562.387 425.418C560.979 424.557 559.363 424.096 557.713 424.084C553.64 424.084 550.186 426.837 549.066 430.61C550.126 429.693 551.312 428.934 552.589 428.356C554.089 427.665 555.699 427.241 557.346 427.105ZM570.383 428.356C571.101 427.656 572.052 427.089 573.087 427.089C573.904 427.089 574.689 427.423 575.407 428.023C575.474 428.073 575.541 428.14 575.607 428.189C575.641 428.223 575.69 428.256 575.724 428.29C575.823 428.39 575.924 428.49 576.025 428.607V428.59C575.24 426.304 573.988 424.818 572.569 424.818C570.682 424.818 569.08 427.422 568.513 431.06C568.98 430.092 569.598 429.124 570.383 428.356Z" fill="black"/>
<path d="M553.723 451.442C553.891 451.509 554.041 451.558 554.208 451.609C558.23 453.013 562.624 452.912 566.577 451.324C566.676 451.275 566.793 451.241 566.894 451.191C567.07 451.121 567.242 451.043 567.411 450.958C567.561 450.891 567.712 450.824 567.862 450.741C567.828 450.741 567.795 450.757 567.763 450.757C567.128 450.824 566.51 450.84 565.893 450.741C562.271 450.224 561.468 448.471 561.585 446.668C561.309 446.509 561.042 446.337 560.785 446.15C557.997 444.131 556.344 441.978 556.344 441.978C556.344 441.978 558.498 443.63 561.702 444.881C561.769 444.915 561.836 444.931 561.903 444.966C562.053 444.448 562.237 443.947 562.386 443.513L562.437 443.362C562.621 442.862 562.82 442.361 563.038 441.876C563.839 440.042 564.824 438.255 565.308 436.303L565.543 435.201H563.572V435.217C563.572 435.551 563.505 435.851 563.389 436.135C563.322 436.269 563.255 436.419 563.172 436.535C563.005 436.787 562.788 437.003 562.537 437.17C562.407 437.249 562.274 437.321 562.137 437.387C561.845 437.507 561.533 437.569 561.218 437.57C561.135 437.57 561.051 437.57 560.968 437.554C560.951 437.554 560.935 437.554 560.919 437.537C560.852 437.537 560.801 437.521 560.734 437.504C560.718 437.504 560.701 437.487 560.685 437.487C560.618 437.47 560.567 437.454 560.5 437.438C560.484 437.438 560.484 437.438 560.468 437.421C560.401 437.403 560.334 437.371 560.284 437.354H560.267L560.067 437.253C559.862 437.139 559.676 436.992 559.516 436.82L552.739 435.167H545.345C545.311 435.217 545.278 435.284 545.244 435.334C545.195 435.433 545.128 435.534 545.077 435.651C544.944 435.901 544.81 436.169 544.693 436.419C544.644 436.502 544.61 436.602 544.56 436.686C544.41 437.021 544.276 437.354 544.142 437.688C544.142 437.704 544.126 437.721 544.126 437.738C543.975 438.121 543.842 438.522 543.725 438.922C543.575 439.424 543.44 439.941 543.324 440.458C544.476 443.976 546.715 447.039 549.718 449.205C549.801 449.272 549.901 449.322 549.985 449.388C550.485 449.74 551.003 450.073 551.538 450.356C552.238 450.791 552.974 451.141 553.724 451.442H553.723Z" fill="white"/>
<path d="M565.859 445.967C565.826 446.149 565.809 446.333 565.809 446.518C565.792 446.835 565.825 447.152 565.876 447.435C565.909 447.636 565.943 447.819 565.992 448.004C566.075 448.27 566.16 448.521 566.277 448.754C566.394 448.988 566.51 449.205 566.626 449.388C566.66 449.455 566.71 449.522 566.744 449.572C566.811 449.655 566.86 449.739 566.927 449.822C567.01 449.923 567.094 450.023 567.161 450.107C567.478 450.474 567.746 450.674 567.746 450.674V450.69C567.746 450.708 567.746 450.724 567.762 450.74C567.795 450.74 567.828 450.724 567.862 450.724C568.647 450.625 569.431 450.407 570.216 450.139C570.617 449.99 571.017 449.84 571.4 449.673C571.518 449.623 571.634 449.555 571.751 449.505C575.775 447.552 579.146 444.114 579.146 444.114C574.104 446.601 569.147 446.501 565.859 445.967Z" fill="#9F2255"/>
<path d="M575.574 439.19C575.256 438.772 574.923 438.355 574.606 437.938C574.588 437.921 574.572 437.888 574.556 437.871L573.504 436.569L573.487 436.553C573.123 436.11 572.756 435.67 572.385 435.234C572.369 435.201 572.335 435.184 572.319 435.15C572.084 434.884 571.851 434.632 571.617 434.366C571.534 434.282 571.451 434.182 571.367 434.099L570.783 433.465C570.633 433.298 570.466 433.147 570.316 432.981L569.865 432.53C569.545 432.21 569.216 431.898 568.88 431.595L568.429 431.194C568.746 432.113 569.114 433.03 569.297 433.982C569.346 434.232 569.381 434.465 569.414 434.7C569.865 437.988 568.797 440.141 567.128 442.978C567.01 443.179 566.876 443.396 566.76 443.597C566.411 444.16 566.152 444.774 565.992 445.416C565.943 445.599 565.909 445.783 565.876 445.967C569.164 446.501 574.104 446.601 579.162 444.114C579.162 444.114 578.178 442.661 576.676 440.659C576.346 440.211 576.011 439.765 575.673 439.322C575.644 439.275 575.611 439.231 575.574 439.19Z" fill="#E2066F"/>
<path d="M567.746 450.708C567.746 450.708 567.494 450.507 567.161 450.139C567.077 450.056 567.01 449.956 566.926 449.856C566.86 449.773 566.811 449.689 566.744 449.606C566.711 449.539 566.66 449.488 566.626 449.422C566.51 449.222 566.392 449.021 566.276 448.787C566.169 448.542 566.074 448.291 565.992 448.036C565.936 447.851 565.897 447.661 565.876 447.469C565.828 447.165 565.805 446.859 565.809 446.551C565.809 446.367 565.825 446.184 565.859 446C565.892 445.816 565.926 445.633 565.976 445.449C566.125 444.881 566.36 444.281 566.744 443.629C566.86 443.413 566.994 443.212 567.11 443.012C568.781 440.175 569.848 438.038 569.397 434.732C569.364 434.5 569.33 434.25 569.281 434.014C569.263 434.182 569.231 434.333 569.198 434.449V434.482C569.185 434.55 569.169 434.617 569.148 434.683C568.413 436.837 567.211 438.521 565.558 440.308C565.341 440.559 565.107 440.792 564.857 441.043C564.439 441.476 564.016 441.904 563.589 442.328C563.405 442.511 563.222 442.679 563.038 442.862C562.871 443.029 562.637 443.263 562.387 443.53C562.236 443.964 562.053 444.464 561.903 444.981C561.836 444.948 561.769 444.932 561.702 444.899C558.498 443.663 556.344 441.994 556.344 441.994C556.344 441.994 557.997 444.148 560.785 446.166C561.051 446.367 561.319 446.534 561.586 446.684C561.468 448.504 562.271 450.24 565.892 450.757C566.51 450.841 567.128 450.841 567.762 450.775C567.762 450.741 567.746 450.725 567.746 450.708Z" fill="black"/>
</g>
<g filter="url(#filter2_d_378_2223)">
<rect x="640" y="320" width="140" height="170" rx="10" fill="#F9F9FE" fill-opacity="0.5" shape-rendering="crispEdges"/>
<rect x="640.5" y="320.5" width="139" height="169" rx="9.5" stroke="#ECEDF5" stroke-opacity="0.6" shape-rendering="crispEdges"/>
</g>
<g clip-path="url(#clip4_378_2223)">
<path d="M726.093 391.747C726.074 391.647 726.022 391.557 725.945 391.491C725.867 391.425 725.769 391.388 725.667 391.386C725.474 391.386 721.8 391.132 721.8 391.132C721.8 391.132 719.247 388.747 718.937 388.494C718.667 388.241 718.086 388.314 717.893 388.386C717.854 388.386 717.312 388.53 716.462 388.783C715.611 386.47 714.102 384.337 711.433 384.337H711.201C710.429 383.397 709.5 383 708.687 383C702.46 383 699.482 390.265 698.553 393.951C696.156 394.639 694.415 395.144 694.221 395.217C692.868 395.614 692.829 395.65 692.674 396.844C692.52 397.71 689 423.193 689 423.193L716.462 428L731.353 425C731.353 425 726.132 392 726.093 391.747ZM714.915 389.217C714.219 389.434 713.445 389.65 712.594 389.904V389.434C712.594 387.988 712.362 386.831 712.052 385.928C713.445 386.072 714.334 387.518 714.915 389.217ZM710.35 386.181C710.737 387.085 710.97 388.349 710.97 390.085V390.337C709.461 390.771 707.797 391.241 706.173 391.711C707.101 388.422 708.842 386.795 710.351 386.181H710.35ZM708.494 384.554C708.764 384.554 709.035 384.627 709.306 384.808C707.334 385.674 705.168 387.879 704.278 392.289C702.963 392.687 701.686 393.049 700.488 393.373C701.532 390.013 704.045 384.554 708.494 384.554Z" fill="#95BF47"/>
<path d="M725.667 391.386C725.474 391.386 721.8 391.133 721.8 391.133C721.8 391.133 719.247 388.747 718.938 388.494C718.821 388.386 718.705 388.35 718.551 388.314L716.462 428L731.353 425C731.353 425 726.132 392 726.093 391.783C726.054 391.53 725.823 391.422 725.667 391.386Z" fill="#5E8E3E"/>
<path d="M711.395 399.084L709.577 404.181C709.577 404.181 707.953 403.386 706.019 403.386C703.118 403.386 703.002 405.084 703.002 405.518C703.002 407.831 709.5 408.735 709.5 414.192C709.5 418.494 706.599 421.241 702.654 421.241C697.935 421.241 695.536 418.494 695.536 418.494L696.814 414.59C696.814 414.59 699.289 416.577 701.377 416.577C702.731 416.577 703.312 415.566 703.312 414.843C703.312 411.807 697.974 411.663 697.974 406.674C697.974 402.482 701.184 398.397 707.721 398.397C710.158 398.397 711.396 399.084 711.396 399.084H711.395Z" fill="white"/>
</g>
<rect x="790" y="350" width="140" height="170" rx="10" fill="#F9F9FE" fill-opacity="0.5"/>
<rect x="790.5" y="350.5" width="139" height="169" rx="9.5" stroke="#ECEDF5" stroke-opacity="0.6"/>
<g clip-path="url(#clip5_378_2223)">
<path fill-rule="evenodd" clip-rule="evenodd" d="M840.998 421.333H878.983C881.387 421.333 883.333 423.226 883.333 425.564V439.667C883.333 442.005 881.387 443.897 878.983 443.897H865.361L867.231 448.351L859.008 443.897H841.017C838.613 443.897 836.667 442.005 836.667 439.667V425.564C836.647 423.244 838.594 421.334 840.997 421.334L840.998 421.333Z" fill="#9B5C8F"/>
<path d="M838.994 425.174C839.262 424.822 839.662 424.636 840.196 424.599C841.169 424.525 841.723 424.97 841.856 425.935C842.448 429.813 843.096 433.098 843.783 435.788L847.961 428.05C848.343 427.345 848.82 426.974 849.392 426.937C850.232 426.881 850.747 427.401 850.957 428.496C851.434 430.964 852.044 433.061 852.769 434.842C853.265 430.129 854.105 426.733 855.288 424.636C855.574 424.116 855.994 423.856 856.547 423.82C856.986 423.783 857.387 423.912 857.749 424.19C858.111 424.47 858.302 424.822 858.34 425.248C858.36 425.582 858.302 425.861 858.15 426.139C857.405 427.475 856.795 429.72 856.299 432.838C855.822 435.863 855.65 438.219 855.765 439.908C855.803 440.372 855.726 440.78 855.535 441.132C855.307 441.541 854.963 441.763 854.525 441.8C854.028 441.838 853.513 441.615 853.017 441.114C851.243 439.351 849.831 436.716 848.801 433.209C847.87 434.982 846.954 436.764 846.053 438.553C844.928 440.65 843.974 441.726 843.173 441.782C842.658 441.819 842.219 441.392 841.837 440.502C840.864 438.071 839.815 433.376 838.689 426.418C838.632 425.935 838.727 425.508 838.994 425.174ZM880.014 428.088C879.327 426.918 878.316 426.214 876.961 425.935C876.622 425.863 876.277 425.826 875.931 425.824C874.099 425.824 872.611 426.752 871.447 428.607C870.455 430.185 869.959 431.929 869.959 433.84C869.959 435.269 870.264 436.494 870.875 437.514C871.562 438.684 872.573 439.388 873.928 439.667C874.29 439.741 874.633 439.778 874.958 439.778C876.808 439.778 878.297 438.85 879.441 436.995C880.433 435.399 880.929 433.655 880.929 431.743C880.929 430.296 880.624 429.09 880.014 428.088ZM877.61 433.228C877.343 434.453 876.866 435.362 876.16 435.974C875.606 436.457 875.091 436.661 874.614 436.568C874.156 436.475 873.774 436.085 873.489 435.362C873.269 434.826 873.152 434.253 873.145 433.673C873.145 433.209 873.183 432.745 873.279 432.319C873.46 431.521 873.804 430.768 874.29 430.11C874.92 429.201 875.587 428.83 876.274 428.96C876.732 429.053 877.114 429.442 877.4 430.166C877.629 430.741 877.743 431.316 877.743 431.855C877.743 432.337 877.686 432.801 877.61 433.228ZM868.051 428.088C867.364 426.918 866.334 426.214 864.999 425.935C864.66 425.863 864.315 425.826 863.969 425.824C862.137 425.824 860.649 426.752 859.485 428.607C858.493 430.185 857.997 431.929 857.997 433.84C857.997 435.269 858.302 436.494 858.913 437.514C859.599 438.684 860.611 439.388 861.965 439.667C862.328 439.741 862.671 439.778 862.995 439.778C864.846 439.778 866.335 438.85 867.479 436.995C868.471 435.399 868.967 433.655 868.967 431.743C868.967 430.296 868.662 429.09 868.051 428.088ZM865.647 433.228C865.38 434.453 864.903 435.362 864.197 435.974C863.644 436.457 863.129 436.661 862.652 436.568C862.194 436.475 861.812 436.085 861.526 435.362C861.306 434.826 861.19 434.253 861.183 433.673C861.183 433.209 861.221 432.745 861.317 432.319C861.497 431.521 861.841 430.769 862.327 430.11C862.957 429.201 863.625 428.83 864.312 428.96C864.77 429.053 865.152 429.442 865.437 430.166C865.667 430.741 865.781 431.316 865.781 431.855C865.781 432.337 865.743 432.801 865.647 433.228Z" fill="white"/>
</g>
<g filter="url(#filter3_d_378_2223)">
<rect x="940" y="320" width="140" height="170" rx="10" fill="#F9F9FE" fill-opacity="0.5" shape-rendering="crispEdges"/>
<rect x="940.5" y="320.5" width="139" height="169" rx="9.5" stroke="#ECEDF5" stroke-opacity="0.6" shape-rendering="crispEdges"/>
</g>
<g clip-path="url(#clip6_378_2223)">
<path d="M988.295 400.98V393.173C988.295 392.884 988.322 392.71 988.789 392.71H995.072C996.169 392.71 996.773 393.693 997.212 395.544L997.569 397.019H998.639C998.83 392.826 998.995 391.004 998.995 391.004C998.995 391.004 996.306 391.322 994.715 391.322H986.676L982.368 391.178V392.392L983.823 392.681C984.838 392.884 985.084 393.115 985.167 394.099C985.167 394.099 985.25 396.99 985.25 401.762C985.25 406.533 985.167 409.396 985.167 409.396C985.167 410.263 984.838 410.581 983.823 410.784L982.368 411.074V412.287L986.676 412.143H993.865C995.484 412.143 999.242 412.287 999.242 412.287C999.324 411.246 999.873 406.533 999.956 406.013H998.941L997.871 408.586C997.02 410.61 995.785 410.755 994.413 410.755H990.325C988.953 410.755 988.295 410.177 988.295 408.933V402.34C988.295 402.34 991.285 402.34 992.327 402.427C993.096 402.485 993.562 402.716 993.809 403.844L994.139 405.348H995.318L995.236 401.559L995.4 397.742H994.221L993.837 399.419C993.59 400.518 993.425 400.721 992.355 400.836C991.148 400.981 988.294 400.952 988.294 400.952V400.981H988.295V400.98ZM1004.56 393.983C1004.18 395.776 1003.8 397.164 1002.45 398.089C1001.63 398.667 1000.81 398.869 1000.48 398.898V399.997H1002.92V408.875C1002.92 411.362 1004.48 412.577 1006.57 412.577C1008.19 412.577 1009.86 411.854 1010.44 410.35L1009.86 409.569C1009.59 410.061 1008.71 410.783 1007.61 410.783C1006.4 410.783 1005.74 409.916 1005.74 407.718V399.882L1009.81 400.2L1010.03 398.233L1005.75 398.407V394.011L1004.56 393.983ZM1013.23 407.638L1012.19 407.667C1012.25 408.303 1012.27 409.113 1012.27 409.864C1012.27 410.645 1012.25 411.368 1012.19 411.715C1012.19 411.715 1014.28 412.524 1016.39 412.524C1019.24 412.524 1021.52 411.078 1021.52 408.244C1021.52 403.387 1014.61 404.11 1014.61 400.842C1014.61 399.483 1015.76 398.962 1017.02 398.962C1018.01 398.962 1018.83 399.338 1019 399.888L1019.68 402.056L1020.7 401.999C1020.78 400.842 1020.84 399.512 1021 398.442C1020.12 398.037 1018.28 397.805 1017.13 397.805C1014.44 397.805 1012.28 399.049 1012.28 401.825C1012.28 406.654 1019.02 405.671 1019.02 409.228C1019.02 410.5 1018.28 411.397 1016.61 411.397C1015.07 411.397 1014.31 410.558 1014 409.719L1013.23 407.638ZM1029.77 410.978C1028.18 415.655 1026.24 416.866 1024.49 416.866C1023.75 416.866 1023.39 416.52 1023.28 415.972L1022.87 413.72L1021.72 413.778C1021.5 415.106 1021.28 416.578 1020.98 417.79C1021.67 418.338 1022.81 418.627 1023.72 418.627C1025.61 418.627 1028.48 418.367 1031.11 411.786L1035.52 400.818C1035.88 399.923 1036.02 399.836 1037.06 399.403L1037.63 399.173V398.163L1035.03 398.307L1032.24 398.163V399.173L1032.95 399.403C1033.66 399.635 1033.99 399.923 1033.99 400.443C1033.99 400.702 1033.91 400.962 1033.77 401.366C1033.36 402.464 1030.81 408.987 1030.13 410.373L1030.81 410.112C1029.61 406.966 1027.77 401.712 1027.5 400.818C1027.44 400.645 1027.42 400.501 1027.42 400.356C1027.42 399.894 1027.72 399.519 1028.37 399.375L1029.28 399.173V398.163L1025.53 398.307L1022.54 398.163V399.173L1023.03 399.346C1023.72 399.577 1023.88 399.779 1024.29 400.789C1026.57 406.274 1027.63 409.275 1029.09 413.201L1029.77 410.978Z" fill="#F27224"/>
</g>
<rect x="1090" y="350" width="140" height="170" rx="10" fill="#F9F9FE" fill-opacity="0.5"/>
<rect x="1090.5" y="350.5" width="139" height="169" rx="9.5" stroke="#ECEDF5" stroke-opacity="0.6"/>
<g clip-path="url(#clip7_378_2223)">
<path d="M1164.2 424.429C1163.08 424.988 1162.59 426.032 1162.59 428.865C1162.59 428.865 1163.15 428.306 1164.05 427.971C1164.7 427.729 1165.17 427.411 1165.5 427.169C1166.47 426.442 1166.62 425.566 1166.62 424.037C1166.6 424.037 1165.07 423.944 1164.2 424.429Z" fill="#FBBD71"/>
<path d="M1157.35 425.082C1156.38 425.883 1156.14 427.263 1156.14 427.263L1153.01 439.268L1150.43 429.444C1150.19 428.4 1149.71 427.113 1148.98 426.218C1148.08 425.082 1146.22 425.007 1145.99 425.007C1145.83 425.007 1143.98 425.082 1143.01 426.219C1142.28 427.113 1141.8 428.4 1141.56 429.444L1139.13 439.268L1136 427.262C1136 427.262 1135.76 425.975 1134.79 425.081C1133.26 423.702 1131 424.038 1131 424.038L1136.97 446.501C1136.97 446.501 1138.91 446.668 1139.88 446.183C1141.16 445.531 1141.82 445.064 1142.54 441.99C1143.27 439.249 1145.21 431.271 1145.36 430.712C1145.43 430.47 1145.6 429.743 1146.09 429.743C1146.57 429.743 1146.74 430.395 1146.81 430.712C1146.98 431.271 1148.9 439.249 1149.63 441.989C1150.43 445.046 1150.99 445.531 1152.3 446.183C1153.27 446.668 1155.21 446.5 1155.21 446.5L1161.14 424.037C1161.14 424.037 1158.88 423.722 1157.35 425.082ZM1166.6 427.654C1166.6 427.654 1166.19 428.213 1165.39 428.698C1164.83 429.014 1164.35 429.181 1163.79 429.499C1162.82 429.983 1162.57 430.468 1162.57 431.195V446.424C1162.57 446.424 1164.1 446.593 1165.07 446.107C1166.36 445.455 1166.6 444.822 1166.6 442.081V427.654ZM1181.43 435.314L1189 424.112C1189 424.112 1185.87 423.553 1184.24 425.006C1183.2 425.9 1182.16 427.579 1182.16 427.579L1179.41 431.605C1179.25 431.847 1179.1 432.016 1178.85 432.016C1178.61 432.016 1178.37 431.773 1178.3 431.605L1175.55 427.579C1175.55 427.579 1174.43 425.975 1173.46 425.006C1171.86 423.553 1168.71 424.112 1168.71 424.112L1176.04 435.296L1168.54 446.481C1168.54 446.481 1171.84 446.891 1173.46 445.437C1174.51 444.542 1175.48 443.014 1175.48 443.014L1178.22 438.987C1178.39 438.745 1178.54 438.576 1178.78 438.576C1179.02 438.576 1179.26 438.819 1179.34 438.987L1182.08 443.013C1182.08 443.013 1183.13 444.541 1184.1 445.437C1185.7 446.89 1188.93 446.481 1188.93 446.481L1181.43 435.316V435.314Z" fill="black"/>
</g>
<defs>
<filter id="filter0_d_378_2223" x="0" y="284" width="220" height="250" filterUnits="userSpaceOnUse" color-interpolation-filters="sRGB">
<feFlood flood-opacity="0" result="BackgroundImageFix"/>
<feColorMatrix in="SourceAlpha" type="matrix" values="0 0 0 0 0 0 0 0 0 0 0 0 0 0 0 0 0 0 127 0" result="hardAlpha"/>
<feOffset dy="4"/>
<feGaussianBlur stdDeviation="20"/>
<feComposite in2="hardAlpha" operator="out"/>
<feColorMatrix type="matrix" values="0 0 0 0 0.0527083 0 0 0 0 0.0579333 0 0 0 0 0.183333 0 0 0 0.02 0"/>
<feBlend mode="normal" in2="BackgroundImageFix" result="effect1_dropShadow_378_2223"/>
<feBlend mode="normal" in="SourceGraphic" in2="effect1_dropShadow_378_2223" result="shape"/>
</filter>
<filter id="filter1_d_378_2223" x="300" y="284" width="220" height="250" filterUnits="userSpaceOnUse" color-interpolation-filters="sRGB">
<feFlood flood-opacity="0" result="BackgroundImageFix"/>
<feColorMatrix in="SourceAlpha" type="matrix" values="0 0 0 0 0 0 0 0 0 0 0 0 0 0 0 0 0 0 127 0" result="hardAlpha"/>
<feOffset dy="4"/>
<feGaussianBlur stdDeviation="20"/>
<feComposite in2="hardAlpha" operator="out"/>
<feColorMatrix type="matrix" values="0 0 0 0 0.0527083 0 0 0 0 0.0579333 0 0 0 0 0.183333 0 0 0 0.02 0"/>
<feBlend mode="normal" in2="BackgroundImageFix" result="effect1_dropShadow_378_2223"/>
<feBlend mode="normal" in="SourceGraphic" in2="effect1_dropShadow_378_2223" result="shape"/>
</filter>
<filter id="filter2_d_378_2223" x="600" y="284" width="220" height="250" filterUnits="userSpaceOnUse" color-interpolation-filters="sRGB">
<feFlood flood-opacity="0" result="BackgroundImageFix"/>
<feColorMatrix in="SourceAlpha" type="matrix" values="0 0 0 0 0 0 0 0 0 0 0 0 0 0 0 0 0 0 127 0" result="hardAlpha"/>
<feOffset dy="4"/>
<feGaussianBlur stdDeviation="20"/>
<feComposite in2="hardAlpha" operator="out"/>
<feColorMatrix type="matrix" values="0 0 0 0 0.0527083 0 0 0 0 0.0579333 0 0 0 0 0.183333 0 0 0 0.02 0"/>
<feBlend mode="normal" in2="BackgroundImageFix" result="effect1_dropShadow_378_2223"/>
<feBlend mode="normal" in="SourceGraphic" in2="effect1_dropShadow_378_2223" result="shape"/>
</filter>
<filter id="filter3_d_378_2223" x="900" y="284" width="220" height="250" filterUnits="userSpaceOnUse" color-interpolation-filters="sRGB">
<feFlood flood-opacity="0" result="BackgroundImageFix"/>
<feColorMatrix in="SourceAlpha" type="matrix" values="0 0 0 0 0 0 0 0 0 0 0 0 0 0 0 0 0 0 127 0" result="hardAlpha"/>
<feOffset dy="4"/>
<feGaussianBlur stdDeviation="20"/>
<feComposite in2="hardAlpha" operator="out"/>
<feColorMatrix type="matrix" values="0 0 0 0 0.0527083 0 0 0 0 0.0579333 0 0 0 0 0.183333 0 0 0 0.02 0"/>
<feBlend mode="normal" in2="BackgroundImageFix" result="effect1_dropShadow_378_2223"/>
<feBlend mode="normal" in="SourceGraphic" in2="effect1_dropShadow_378_2223" result="shape"/>
</filter>
<clipPath id="clip0_378_2223">
<rect width="50" height="73.1707" fill="white" transform="translate(610 63)"/>
</clipPath>
<clipPath id="clip1_378_2223">
<rect width="65" height="26" fill="white" transform="translate(227 422)"/>
</clipPath>
<clipPath id="clip2_378_2223">
<rect width="42" height="42" fill="white" transform="translate(389 384)"/>
</clipPath>
<clipPath id="clip3_378_2223">
<rect width="52" height="52" fill="white" transform="translate(534 409)"/>
</clipPath>
<clipPath id="clip4_378_2223">
<rect width="42.75" height="45" fill="white" transform="translate(689 383)"/>
</clipPath>
<clipPath id="clip5_378_2223">
<rect width="48" height="28" fill="white" transform="translate(836 421)"/>
</clipPath>
<clipPath id="clip6_378_2223">
<rect width="56" height="28" fill="white" transform="translate(982 391)"/>
</clipPath>
<clipPath id="clip7_378_2223">
<rect width="58" height="22.9583" fill="white" transform="translate(1131 424)"/>
</clipPath>
</defs>
</svg>
