<svg width="102" height="108" viewBox="0 0 102 108" fill="none" xmlns="http://www.w3.org/2000/svg">
<path fill-rule="evenodd" clip-rule="evenodd" d="M94.6446 54.8553C94.979 54.8553 95.25 55.1264 95.25 55.4607C95.25 68.4435 94.0404 77.6955 91.8246 84.2635C89.6032 90.8485 86.3586 94.7665 82.2892 97.0153C78.2439 99.2506 73.464 99.7898 68.2699 99.7898C65.7643 99.7898 63.1411 99.6637 60.4424 99.534L60.1348 99.5192C57.3225 99.3842 54.4255 99.25 51.4608 99.25C51.1264 99.25 50.8554 98.9789 50.8554 98.6446C50.8554 98.3102 51.1264 98.0392 51.4608 98.0392C54.4584 98.0392 57.3827 98.1749 60.1928 98.3098L60.4885 98.324C63.1971 98.4542 65.7941 98.579 68.2699 98.579C73.4087 98.579 77.9341 98.0385 81.7036 95.9555C85.4488 93.8859 88.5284 90.2467 90.6774 83.8765C92.8321 77.4894 94.0392 68.3883 94.0392 55.4607C94.0392 55.1264 94.3103 54.8553 94.6446 54.8553Z" fill="#FF9054"/>
<path fill-rule="evenodd" clip-rule="evenodd" d="M13.3548 22.8699C7.55136 30.5078 6.46076 41.1132 6.46076 53.0392C6.46076 53.3736 6.18972 53.6446 5.85538 53.6446C5.52104 53.6446 5.25 53.3736 5.25 53.0392C5.25 41.1155 6.31859 30.129 12.3907 22.1374C18.4937 14.1052 29.5208 9.24997 49.0392 9.25C49.3736 9.25 49.6446 9.52104 49.6446 9.85538C49.6446 10.1897 49.3736 10.4608 49.0392 10.4608C29.6922 10.4607 19.1274 15.2725 13.3548 22.8699Z" fill="#FF9054"/>
<path d="M90.6087 54.25C90.6087 102.68 72.5395 94.6087 50.25 94.6087C27.9605 94.6087 9.89125 76.5395 9.89125 54.25C9.89125 31.9605 13.9271 13.8912 50.25 13.8912C86.5729 13.8913 90.6087 31.9605 90.6087 54.25Z" fill="#FF9054"/>
<path fill-rule="evenodd" clip-rule="evenodd" d="M36.528 48.1509C36.528 47.4894 37.0643 46.9531 37.7258 46.9531H64.0761C64.7376 46.9531 65.2739 47.4894 65.2739 48.1509C65.2739 48.8124 64.7376 49.3486 64.0761 49.3486H37.7258C37.0643 49.3486 36.528 48.8124 36.528 48.1509Z" fill="white"/>
<path fill-rule="evenodd" clip-rule="evenodd" d="M36.528 54.1396C36.528 53.4781 37.0643 52.9419 37.7258 52.9419H64.0761C64.7376 52.9419 65.2739 53.4781 65.2739 54.1396C65.2739 54.8011 64.7376 55.3374 64.0761 55.3374H37.7258C37.0643 55.3374 36.528 54.8011 36.528 54.1396Z" fill="white"/>
<path fill-rule="evenodd" clip-rule="evenodd" d="M36.528 60.1283C36.528 59.4668 37.0643 58.9305 37.7258 58.9305H64.0761C64.7376 58.9305 65.2739 59.4668 65.2739 60.1283C65.2739 60.7898 64.7376 61.326 64.0761 61.326H37.7258C37.0643 61.326 36.528 60.7898 36.528 60.1283Z" fill="white"/>
<path fill-rule="evenodd" clip-rule="evenodd" d="M36.528 66.1168C36.528 65.4553 37.0643 64.9191 37.7258 64.9191H64.0761C64.7376 64.9191 65.2739 65.4553 65.2739 66.1168C65.2739 66.7783 64.7376 67.3146 64.0761 67.3146H37.7258C37.0643 67.3146 36.528 66.7783 36.528 66.1168Z" fill="white"/>
<path fill-rule="evenodd" clip-rule="evenodd" d="M36.528 72.1056C36.528 71.4441 37.0643 70.9078 37.7258 70.9078H64.0761C64.7376 70.9078 65.2739 71.4441 65.2739 72.1056C65.2739 72.7671 64.7376 73.3033 64.0761 73.3033H37.7258C37.0643 73.3033 36.528 72.7671 36.528 72.1056Z" fill="white"/>
<path d="M71.2626 63.7216C71.2626 69.6751 66.4364 74.5013 60.4829 74.5013C54.5294 74.5013 49.7032 69.6751 49.7032 63.7216C49.7032 57.7681 54.5294 52.9419 60.4829 52.9419C66.4364 52.9419 71.2626 57.7681 71.2626 63.7216Z" fill="white"/>
<path fill-rule="evenodd" clip-rule="evenodd" d="M73.6581 63.7216C73.6581 70.998 67.7593 76.8968 60.4829 76.8968C53.2064 76.8968 47.3077 70.998 47.3077 63.7216C47.3077 56.4451 53.2064 50.5464 60.4829 50.5464C67.7593 50.5464 73.6581 56.4451 73.6581 63.7216ZM60.4829 74.5013C66.4364 74.5013 71.2626 69.675 71.2626 63.7216C71.2626 57.7681 66.4364 52.9419 60.4829 52.9419C54.5294 52.9419 49.7032 57.7681 49.7032 63.7216C49.7032 69.675 54.5294 74.5013 60.4829 74.5013Z" fill="#FF9055"/>
<path d="M64.1348 64.7C64.1348 65.2498 63.9312 65.7181 63.524 66.105C63.1235 66.4851 62.5398 66.7158 61.7729 66.7973V67.9375H60.9381V66.8075C60.4358 66.7735 59.9607 66.6819 59.5127 66.5326C59.0648 66.3833 58.7085 66.1932 58.4438 65.9625L58.9019 64.9342C59.153 65.1378 59.4584 65.3109 59.8182 65.4534C60.1779 65.5892 60.5512 65.674 60.9381 65.7079V63.6718C60.4562 63.5564 60.0523 63.4308 59.7265 63.2951C59.4075 63.1525 59.1394 62.9489 58.9223 62.6842C58.7051 62.4127 58.5965 62.0564 58.5965 61.6152C58.5965 61.0655 58.7967 60.5972 59.1971 60.2103C59.5976 59.8234 60.1779 59.5926 60.9381 59.518V58.3676H61.7729V59.4976C62.153 59.518 62.5229 59.5825 62.8826 59.6911C63.2491 59.7997 63.5681 59.9422 63.8396 60.1187L63.4222 61.1469C62.9064 60.8483 62.3566 60.665 61.7729 60.5972V62.6537C62.2616 62.7691 62.6654 62.8946 62.9844 63.0304C63.3102 63.1661 63.5817 63.3697 63.7989 63.6412C64.0228 63.9059 64.1348 64.2589 64.1348 64.7ZM59.9098 61.5542C59.9098 61.7781 59.998 61.958 60.1745 62.0937C60.351 62.2295 60.6055 62.3449 60.9381 62.4399V60.6277C60.5919 60.682 60.334 60.7906 60.1643 60.9535C59.9946 61.1164 59.9098 61.3166 59.9098 61.5542ZM61.7729 65.6876C62.1326 65.6333 62.3973 65.5281 62.567 65.372C62.7435 65.2159 62.8317 65.0224 62.8317 64.7917C62.8317 64.5609 62.7401 64.3776 62.5568 64.2419C62.3736 64.0994 62.1122 63.9806 61.7729 63.8856V65.6876Z" fill="#FF9055"/>
<path fill-rule="evenodd" clip-rule="evenodd" d="M43.811 35.0182L48.575 30.2542C48.8673 29.9618 49.3413 29.9618 49.6337 30.2542L54.3977 35.0182C54.69 35.3105 54.69 35.7845 54.3977 36.0768C54.1053 36.3692 53.6313 36.3692 53.339 36.0768L49.8529 32.5907L49.8529 42.1621C49.8529 42.5755 49.5178 42.9106 49.1043 42.9106C48.6909 42.9106 48.3557 42.5755 48.3557 42.1621L48.3557 32.5907L44.8697 36.0768C44.5773 36.3692 44.1034 36.3692 43.811 36.0768C43.5187 35.7845 43.5187 35.3105 43.811 35.0182Z" fill="white"/>
<path d="M94.5 0L96.5257 5.47432L102 7.5L96.5257 9.52568L94.5 15L92.4743 9.52568L87 7.5L92.4743 5.47432L94.5 0Z" fill="#FF9054"/>
<path d="M10 88L12.7009 95.2991L20 98L12.7009 100.701L10 108L7.29909 100.701L0 98L7.29909 95.2991L10 88Z" fill="#FF9054"/>
</svg>
