<svg width="102" height="108" viewBox="0 0 102 108" fill="none" xmlns="http://www.w3.org/2000/svg">
<path fill-rule="evenodd" clip-rule="evenodd" d="M94.6446 54.8553C94.9789 54.8553 95.25 55.1264 95.25 55.4607C95.25 68.4435 94.0403 77.6955 91.8246 84.2635C89.6032 90.8485 86.3586 94.7665 82.2891 97.0153C78.2439 99.2506 73.4639 99.7898 68.2698 99.7898C65.7642 99.7898 63.141 99.6637 60.4424 99.534L60.1348 99.5192C57.3225 99.3842 54.4255 99.25 51.4607 99.25C51.1264 99.25 50.8553 98.9789 50.8553 98.6446C50.8553 98.3102 51.1264 98.0392 51.4607 98.0392C54.4584 98.0392 57.3827 98.1749 60.1928 98.3098L60.4885 98.324C63.197 98.4542 65.794 98.579 68.2698 98.579C73.4086 98.579 77.934 98.0385 81.7035 95.9555C85.4488 93.8859 88.5284 90.2467 90.6774 83.8765C92.8321 77.4894 94.0392 68.3883 94.0392 55.4607C94.0392 55.1264 94.3102 54.8553 94.6446 54.8553Z" fill="#FF9054"/>
<path fill-rule="evenodd" clip-rule="evenodd" d="M13.3548 22.8699C7.55136 30.5078 6.46076 41.1132 6.46076 53.0392C6.46076 53.3736 6.18972 53.6446 5.85538 53.6446C5.52104 53.6446 5.25 53.3736 5.25 53.0392C5.25 41.1155 6.31859 30.129 12.3907 22.1374C18.4937 14.1052 29.5208 9.24997 49.0392 9.25C49.3736 9.25 49.6446 9.52104 49.6446 9.85538C49.6446 10.1897 49.3736 10.4608 49.0392 10.4608C29.6922 10.4607 19.1274 15.2725 13.3548 22.8699Z" fill="#FF9054"/>
<path d="M90.6087 54.25C90.6087 102.68 72.5395 94.6087 50.25 94.6087C27.9605 94.6087 9.89124 76.5395 9.89124 54.25C9.89124 31.9605 13.9271 13.8912 50.25 13.8912C86.5728 13.8913 90.6087 31.9605 90.6087 54.25Z" fill="#FF9054"/>
<path d="M94.5 0L96.5257 5.47432L102 7.5L96.5257 9.52568L94.5 15L92.4743 9.52568L87 7.5L92.4743 5.47432L94.5 0Z" fill="#FF9054"/>
<path d="M10 88L12.7009 95.2991L20 98L12.7009 100.701L10 108L7.29909 100.701L0 98L7.29909 95.2991L10 88Z" fill="#FF9054"/>
<path d="M31 58C31 56.3431 32.3431 55 34 55H48C49.6569 55 51 56.3431 51 58V72C51 73.6569 49.6569 75 48 75H34C32.3431 75 31 73.6569 31 72V58Z" fill="white"/>
<path fill-rule="evenodd" clip-rule="evenodd" d="M35 36C34.727 36 34.4691 36.0542 34.2347 36.1514C33.7245 36.3629 33.1395 36.1209 32.9279 35.6107C32.7164 35.1005 32.9584 34.5155 33.4686 34.3039C33.9416 34.1078 34.4595 34 35 34H37.75C38.3023 34 38.75 34.4477 38.75 35C38.75 35.5523 38.3023 36 37.75 36H35ZM42.25 35C42.25 34.4477 42.6977 34 43.25 34H48.75C49.3023 34 49.75 34.4477 49.75 35C49.75 35.5523 49.3023 36 48.75 36H43.25C42.6977 36 42.25 35.5523 42.25 35ZM53.25 35C53.25 34.4477 53.6977 34 54.25 34H59.75C60.3023 34 60.75 34.4477 60.75 35C60.75 35.5523 60.3023 36 59.75 36H54.25C53.6977 36 53.25 35.5523 53.25 35ZM64.25 35C64.25 34.4477 64.6977 34 65.25 34H68C68.5405 34 69.0584 34.1078 69.5314 34.3039C70.0416 34.5155 70.2836 35.1005 70.0721 35.6107C69.8605 36.1209 69.2755 36.3629 68.7653 36.1514C68.5309 36.0542 68.273 36 68 36H65.25C64.6977 36 64.25 35.5523 64.25 35ZM32.6107 35.9279C33.1209 36.1395 33.3629 36.7245 33.1514 37.2347C33.0542 37.4691 33 37.727 33 38V40.75C33 41.3023 32.5523 41.75 32 41.75C31.4477 41.75 31 41.3023 31 40.75V38C31 37.4595 31.1078 36.9416 31.3039 36.4686C31.5155 35.9584 32.1005 35.7164 32.6107 35.9279ZM70.3893 35.9279C70.8995 35.7164 71.4845 35.9584 71.6961 36.4686C71.8922 36.9416 72 37.4595 72 38V40.75C72 41.3023 71.5523 41.75 71 41.75C70.4477 41.75 70 41.3023 70 40.75V38C70 37.727 69.9458 37.4691 69.8486 37.2347C69.6371 36.7245 69.8791 36.1395 70.3893 35.9279ZM32 45.25C32.5523 45.25 33 45.6977 33 46.25V51.75C33 52.3023 32.5523 52.75 32 52.75C31.4477 52.75 31 52.3023 31 51.75V46.25C31 45.6977 31.4477 45.25 32 45.25ZM71 45.25C71.5523 45.25 72 45.6977 72 46.25V51.75C72 52.3023 71.5523 52.75 71 52.75C70.4477 52.75 70 52.3023 70 51.75V46.25C70 45.6977 70.4477 45.25 71 45.25ZM32 56.25C32.5523 56.25 33 56.6977 33 57.25V62.75C33 63.3023 32.5523 63.75 32 63.75C31.4477 63.75 31 63.3023 31 62.75V57.25C31 56.6977 31.4477 56.25 32 56.25ZM71 56.25C71.5523 56.25 72 56.6977 72 57.25V62.75C72 63.3023 71.5523 63.75 71 63.75C70.4477 63.75 70 63.3023 70 62.75V57.25C70 56.6977 70.4477 56.25 71 56.25ZM32 67.25C32.5523 67.25 33 67.6977 33 68.25V71C33 71.273 33.0542 71.5309 33.1514 71.7653C33.3629 72.2755 33.1209 72.8605 32.6107 73.0721C32.1005 73.2836 31.5155 73.0416 31.3039 72.5314C31.1078 72.0584 31 71.5405 31 71V68.25C31 67.6977 31.4477 67.25 32 67.25ZM71 67.25C71.5523 67.25 72 67.6977 72 68.25V71C72 71.5405 71.8922 72.0584 71.6961 72.5314C71.4845 73.0416 70.8995 73.2836 70.3893 73.0721C69.8791 72.8605 69.6371 72.2755 69.8486 71.7653C69.9458 71.5309 70 71.273 70 71V68.25C70 67.6977 70.4477 67.25 71 67.25ZM32.9279 73.3893C33.1395 72.8791 33.7245 72.6371 34.2347 72.8486C34.4691 72.9458 34.727 73 35 73H37.75C38.3023 73 38.75 73.4477 38.75 74C38.75 74.5523 38.3023 75 37.75 75H35C34.4595 75 33.9416 74.8922 33.4686 74.6961C32.9584 74.4845 32.7164 73.8995 32.9279 73.3893ZM70.0721 73.3893C70.2836 73.8995 70.0416 74.4845 69.5314 74.6961C69.0584 74.8922 68.5405 75 68 75H65.25C64.6977 75 64.25 74.5523 64.25 74C64.25 73.4477 64.6977 73 65.25 73H68C68.273 73 68.5309 72.9458 68.7653 72.8486C69.2755 72.6371 69.8605 72.8791 70.0721 73.3893ZM42.25 74C42.25 73.4477 42.6977 73 43.25 73H48.75C49.3023 73 49.75 73.4477 49.75 74C49.75 74.5523 49.3023 75 48.75 75H43.25C42.6977 75 42.25 74.5523 42.25 74ZM53.25 74C53.25 73.4477 53.6977 73 54.25 73H59.75C60.3023 73 60.75 73.4477 60.75 74C60.75 74.5523 60.3023 75 59.75 75H54.25C53.6977 75 53.25 74.5523 53.25 74Z" fill="white"/>
<path fill-rule="evenodd" clip-rule="evenodd" d="M58.2232 52.1522L52.6464 53.6465L54.1407 48.0697L55.8284 49.7574L60.7781 44.8076L59.0904 43.1199L64.6672 41.6257L63.1729 47.2024L61.4852 45.5147L56.5355 50.4645L58.2232 52.1522Z" fill="white"/>
<path d="M55 60C55 58.8954 55.8954 58 57 58H64C65.1046 58 66 58.8954 66 60V67C66 68.1046 65.1046 69 64 69H57C55.8954 69 55 68.1046 55 67V60Z" fill="white"/>
<path d="M37 42C37 40.8954 37.8954 40 39 40H46C47.1046 40 48 40.8954 48 42V49C48 50.1046 47.1046 51 46 51H39C37.8954 51 37 50.1046 37 49V42Z" fill="white"/>
</svg>
